<?xml version="1.0" encoding="UTF-8"?>
<svg width="320px" height="55px" viewBox="0 0 320 55" version="1.1" xmlns="http://www.w3.org/2000/svg" xmlns:xlink="http://www.w3.org/1999/xlink">
    <!-- Generator: Sketch 43.1 (39012) - http://www.bohemiancoding.com/sketch -->
    <title>Combined Shape</title>
    <desc>Created with Sketch.</desc>
    <defs></defs>
    <g id="Page-1" stroke="none" stroke-width="1" fill="none" fill-rule="evenodd">
        <path d="M50.5,12.8 C49.8,13.6 49.2,14.3 48.8,14.9 C44.4,21.5 36.2,31.3 27.6,38.8 C31.3,42.2 35.3,46.2 37.9,49 L32.5,53.6 C30,50.5 24.9,45.1 20.9,41.4 C17.2,38 10.5,32.6 7,30.3 L11.8,26.2 C14.2,27.8 18.8,31.2 22.8,34.7 C30.2,28.5 37.4,19.9 40.2,15.4 L7.1,15.4 C4.8,15.4 1.9,15.6 0.7,15.8 L0.7,9 C2.3,9.2 5.1,9.5 7.1,9.5 L42,9.5 C43.9,9.5 45.6,9.3 46.6,9 L50.5,12.8 Z M83,45.9 C83,48.4 83.1,51.7 83.4,53 L76,53 C76.2,51.7 76.4,48.4 76.4,45.9 L76.4,24.6 C70,27.9 62.1,31.2 54.7,33.4 L51.3,27.6 C61.6,25.3 71.6,20.8 78.4,16.7 C84.5,12.9 90.7,7.6 94.1,3.3 L99.2,7.9 C94.8,12.3 89.2,17 83.2,20.9 L83.2,45.9 L83,45.9 Z M119.1,29.8 C116.5,35 111.1,42.4 107.8,46 L102.6,42.5 C106.6,38.8 111.5,32.1 113.9,27.1 L119.1,29.8 Z M132.3,20.6 L132.3,48.6 C132.3,51.8 130.6,53.7 126.7,53.7 C123.9,53.7 120.3,53.6 117.6,53.3 L117.1,47.4 C119.7,47.9 122.4,48.1 123.9,48.1 C125.5,48.1 126.1,47.5 126.2,45.9 L126.2,20.8 L110.2,20.8 C108.3,20.8 106.4,20.9 104.8,21 L104.8,14.6 C106.5,14.8 108.3,15 110.1,15 L126.2,15 L126.2,9.3 C126.2,7.9 126,5.6 125.7,4.6 L132.8,4.6 C132.6,5.4 132.3,7.9 132.3,9.3 L132.3,15 L147.4,15 C149,15 151.2,14.8 152.7,14.6 L152.7,20.8 C151,20.7 148.9,20.6 147.4,20.6 L132.3,20.6 L132.3,20.6 Z M144.6,27 C147.7,30.8 152.5,38.3 154.9,42.7 L149.4,45.8 C146.9,40.9 142.4,33.6 139.4,29.8 L144.6,27 Z M142,6.7 C142,3 145,0 148.7,0 C152.4,0 155.5,3 155.5,6.7 C155.5,10.4 152.4,13.4 148.7,13.4 C145,13.4 142,10.4 142,6.7 Z M145.2,6.7 C145.2,8.7 146.8,10.3 148.7,10.3 C150.7,10.3 152.3,8.7 152.3,6.7 C152.3,4.7 150.7,3.1 148.7,3.1 C146.8,3.1 145.2,4.7 145.2,6.7 Z M160.3,24 C162.3,24.1 166,24.4 169.2,24.4 L201.8,24.4 C204.7,24.4 207,24.2 208.5,24 L208.5,31.4 C207.2,31.3 204.4,31.1 201.8,31.1 L169.2,31.1 C165.9,31.1 162.3,31.2 160.3,31.4 L160.3,24 Z M264,13 C263.5,14 262.7,15.5 262.3,16.7 C259.8,24.3 256.7,31.2 251.9,37.2 C246,44.9 237.8,51 230,54.2 L224.5,49.3 C232.1,46.7 238.9,41.9 244.5,36.1 C241.1,33.6 236.6,30.6 232.3,27.9 L236.3,23.4 C240.6,25.8 245.1,28.7 248.7,31.2 C252.1,26.4 254.5,20.6 255.7,16 L236.7,16 C233,21.4 227.9,27.5 221.8,31.8 L216.5,27.9 C226.5,21.2 233.1,11.1 235,6.4 C235.7,5 236.2,3.2 236.6,1.6 L243.7,3.8 C242.7,5.5 241.9,7 241.2,8.5 C240.9,9.2 240.5,9.9 240.1,10.6 L255,10.6 C256.7,10.6 258.4,10.4 259.4,9.9 L264,13 Z M265.3,48.6 C270.5,44.9 273.6,39.8 275.4,34.3 C277.1,29 277.1,17.9 277.1,11 C277.1,9 277,7.5 276.6,6.1 L283.6,6.1 C283.5,6.6 283.3,8.8 283.3,10.9 C283.3,17.7 283.1,29.9 281.4,35.9 C279.6,42.5 275.8,48.4 270.7,52.7 L265.3,48.6 Z M292.6,49.4 C292.8,48.4 293,47 293,45.6 L293,10.7 C293,8.2 292.6,6.3 292.6,5.9 L299.6,5.9 C299.5,6.3 299.3,8.2 299.3,10.7 L299.3,43.3 C304.5,41 311.3,35.9 315.6,29.5 L319.3,34.7 C314.2,41.5 305.7,47.8 298.8,51.3 C297.8,51.8 297.2,52.3 296.5,52.8 L292.6,49.4 Z" id="Combined-Shape" fill="#225BA6" fill-rule="nonzero"></path>
    </g>
</svg>