<svg xmlns="http://www.w3.org/2000/svg" viewBox="0 0 211.13 81.88"><defs><style>.cls-1{fill:#0092d8;}</style></defs><title>アセット 1</title><g id="レイヤー_2" data-name="レイヤー 2"><g id="弥生会計17"><path class="cls-1" d="M94.38,27.25V31H82.48a1.55,1.55,0,0,0-1.54,1.55v10.2a1.55,1.55,0,0,0,1.55,1.55H98.73v3.76H58.81V44.31H76a1.56,1.56,0,0,0,1.53-1.59V32.31A1.42,1.42,0,0,0,76,31H64.43V27.25H76c.77,0,1.53-1.27,1.53-2.17V17A1.6,1.6,0,0,0,76,15.36H66.51a1.56,1.56,0,0,0-1.44,1l-3.69,7.75-3.07-1.51a88.22,88.22,0,0,0,4.42-9.66c1.68-4.17,2.9-7.51,3.75-10.35l3.16,1.07c-.31,1.43-1.9,5.9-1.9,5.9a1.55,1.55,0,0,0,1.44,2.08H76a1.55,1.55,0,0,0,1.5-1.3V0h3.46V10.05a1.55,1.55,0,0,0,1.53,1.55h14v3.76h-14a1.55,1.55,0,0,0-1.55,1.55V25c0,.86.7,2.25,1.55,2.25Z"/><rect class="cls-1" x="123.92" y="18.61" width="19.11" height="3.76"/><path class="cls-1" d="M135.46.09H132c-2.66,4.27-11.62,15.81-19.49,21l2.24,3.07C122.08,18.8,127.27,12.27,132.45,6c1-1.22,1.54-1.2,2.54,0,5.2,6.24,10.37,12.79,17.72,18.18L155,21.12C147.08,15.9,138.12,4.36,135.46.09Z"/><path class="cls-1" d="M145.57,44.28a1.55,1.55,0,0,0-1.36-.49l-28.22,4-.49-3.7,5.63-.79a1.35,1.35,0,0,0,1-.69l5.21-8.51c.63-1,.36-1.88-.85-1.88H115.9V28.43h35.55v3.76H133.67a1.55,1.55,0,0,0-1.25.64l-4.62,7.41c-.7,1.12-.44,2.12.86,1.93l11.83-1.66c1-.19,1.07-.59.29-1.45l-2.29-2.51,2.58-2.36,11.09,12-2.57,2.37Z"/><path class="cls-1" d="M189.48,12.13H170.11V8.37h19.37ZM188,48.08H184.8V46.9a1.25,1.25,0,0,0-1.25-1.25h-7.69a1.25,1.25,0,0,0-1.25,1.25v1.17h-3.15V30.55H188Zm-.18-43.5H171.59V.82h16.19Zm-.45,15.08H172V15.9h15.3Zm0,7H172V22.88h15.3Zm-2.5,14V35.56a1.25,1.25,0,0,0-1.25-1.25h-7.7a1.25,1.25,0,0,0-1.25,1.25v5.09a1.25,1.25,0,0,0,1.25,1.25h7.7A1.25,1.25,0,0,0,184.83,40.64Zm26.3-21h-7.53a1.25,1.25,0,0,0-1.25,1.25V48.08h-3.46V20.9a1.25,1.25,0,0,0-1.25-1.25H190.1V15.89h7.53a1.25,1.25,0,0,0,1.25-1.25V0h3.46v14.6a1.25,1.25,0,0,0,1.25,1.25h7.53Z"/><path class="cls-1" d="M22.63,21.92l3,.94a128.29,128.29,0,0,1-6.74,17.39L16,38.89A129.93,129.93,0,0,0,22.63,21.92Z"/><path class="cls-1" d="M23.36.08l3,1L24.05,7.6c-.37,1-.21,2.09,1.39,2.09H41.68v3.77H33.36A1.44,1.44,0,0,0,31.82,15V48.08h-8V44.31h3a1.4,1.4,0,0,0,1.47-1.54V15a1.55,1.55,0,0,0-1.55-1.55h-4a1.56,1.56,0,0,0-1.43,1L18,21.71l-2.83-1.37A157.5,157.5,0,0,0,23.36.08Z"/><polygon class="cls-1" points="42.8 39.85 37.35 21.3 34.28 22.21 39.71 40.76 42.8 39.85"/><path class="cls-1" d="M14.54,2V18.09H6.61a1.54,1.54,0,0,0-1.53,1.34l-.6,4.29a1.55,1.55,0,0,0,1.43,1.76h8.67s-.62,8-1.12,11.61a51.34,51.34,0,0,1-2.1,10c0,.07-.33.77-.44,1H2.62V44.32H7.93a1.13,1.13,0,0,0,1.22-.91A75.94,75.94,0,0,0,11,30.8a1.48,1.48,0,0,0-1.54-1.58H5a1.55,1.55,0,0,0-1.54,1.35L3.2,32.73,0,32.28,2.54,14.33H10a1.49,1.49,0,0,0,1.45-1.44V7.22A1.51,1.51,0,0,0,9.91,5.77H1.49V2Z"/><path class="cls-1" d="M64.22,81.41H59.81V79h1.11A.94.94,0,0,0,62,78V73.71c0-1.32-1.26-.55-1.45-.33a24.31,24.31,0,0,1-6,5.27l-.33.21L53.1,76.74l.28-.17a23.79,23.79,0,0,0,6.45-5.93c.42-.53.65-1.4-.51-1.4H53.21V66.83h7.71A.92.92,0,0,0,62,65.77V62.4h2.25v3.37c0,.92.55,1.06,1.06,1.06H69v2.41H65.27c-.74,0-1.06.24-1.06,1.06Z"/><path class="cls-1" d="M76.93,80.81l-.72-2.33.32-.12a24.62,24.62,0,0,0,3.16-1.53,31.27,31.27,0,0,0,10-8.62l.23-.31,1.82,1.58-.2.27a33.7,33.7,0,0,1-11.11,9.46,25.14,25.14,0,0,1-3.17,1.48ZM80.65,70l-4.33-4.26,1.54-1.9,4.31,4.31Z"/><path class="cls-1" d="M130.94,81.88h-2.33v-9.7c0-.9-.7-1.08-1.3-.66a43.53,43.53,0,0,1-5.19,3.16l-.35.19-.94-2.26.29-.15A41.14,41.14,0,0,0,134,62.32l.26-.32,1.66,1.77-.18.24a24,24,0,0,1-4.15,4.33,2.18,2.18,0,0,0-.62,1.75Z"/><path class="cls-1" d="M143.39,80.81l-.72-2.33.32-.12a24.6,24.6,0,0,0,3.16-1.53,31.26,31.26,0,0,0,10-8.62l.23-.31,1.82,1.58-.2.27a33.71,33.71,0,0,1-11.11,9.46,25,25,0,0,1-3.17,1.48ZM147.11,70l-4.33-4.26,1.54-1.9,4.31,4.31Z"/><path class="cls-1" d="M111.51,66.33H101.26V63.94h10.25Z"/><path class="cls-1" d="M104.32,81.78l-1.55-1.93.42-.19a14.51,14.51,0,0,0,5.37-4,9.16,9.16,0,0,0,1.83-2.79c.14-.29.47-1.54-1.09-1.54H99.08V69h14.63v.37a12.56,12.56,0,0,1-2.58,7.13,16.37,16.37,0,0,1-6.54,5.16Z"/></g></g></svg>