<svg xmlns="http://www.w3.org/2000/svg" viewBox="0 0 148.2 96.5"><defs><style>.cls-1{fill:#efefef;stroke:#231815;stroke-linecap:round;stroke-miterlimit:10;}</style></defs><title>アセット 1</title><g id="レイヤー_2" data-name="レイヤー 2"><g id="レイヤー_4" data-name="レイヤー 4"><path class="cls-1" d="M112.42,23.61h0c-.72,0-1.42,0-2.13.07A35.29,35.29,0,0,0,77.14.5h0a35.29,35.29,0,0,0-34,25.72,35.4,35.4,0,0,0-7.4-.78h0A35.28,35.28,0,0,0,.5,60.72h0A35.28,35.28,0,0,0,35.78,96h0a35.44,35.44,0,0,0,6.5-.61h70.14V94.18h0A35.28,35.28,0,0,0,147.7,58.89h0A35.28,35.28,0,0,0,112.42,23.61Z"/></g></g></svg>