<svg xmlns="http://www.w3.org/2000/svg" viewBox="0 0 211.51 108.77"><defs><style>.cls-1{fill:#00afec;}</style></defs><title>アセット 1</title><g id="レイヤー_2" data-name="レイヤー 2"><g id="やよいの青色申告"><path class="cls-1" d="M41.81,47.46H.46V43.9H18.23a1.45,1.45,0,0,0,1.45-1.45V42a1.45,1.45,0,0,0-1.45-1.45H4.48V37H18.23a1.45,1.45,0,0,0,1.45-1.45v-.4a1.45,1.45,0,0,0-1.45-1.45H2.2V30.17h16a1.45,1.45,0,0,0,1.45-1.45V26.3h3.4v2.42a1.45,1.45,0,0,0,1.45,1.45H40.47v3.57H24.53a1.45,1.45,0,0,0-1.45,1.45v.4A1.45,1.45,0,0,0,24.53,37H37.74V40.6H24.53A1.45,1.45,0,0,0,23.08,42v.4a1.45,1.45,0,0,0,1.45,1.45H41.81ZM27.19,74.88V71.43H31A1.45,1.45,0,0,0,32.42,70V68.66A1.45,1.45,0,0,0,31,67.21H11.52a1.45,1.45,0,0,0-1.45,1.45v6.27H6.76V50.18H35.82v24.7Zm5.23-19.08v-.5A1.45,1.45,0,0,0,31,53.85H11.52a1.45,1.45,0,0,0-1.45,1.45v.5a1.45,1.45,0,0,0,1.45,1.45H31A1.45,1.45,0,0,0,32.42,55.81Zm0,6.49v-.19A1.45,1.45,0,0,0,31,60.66H11.52a1.45,1.45,0,0,0-1.45,1.45v.19a1.45,1.45,0,0,0,1.45,1.45H31A1.45,1.45,0,0,0,32.42,62.3Z"/><path class="cls-1" d="M62.92,73.32V45.46a1,1,0,0,0-1.66-.71l-.81.77-2.14-2.92A151.43,151.43,0,0,0,73.61,26.05l2.77,2.25L75,30a1,1,0,0,0,.75,1.59H88l1,3.19-5.1,5.37a1,1,0,0,0,.71,1.74H94.76V57.83H67.3a1,1,0,0,0-1,1v8.88c0,1.23.46,2,1.46,2H93.65a1,1,0,0,0,1-1V64.33H98v9ZM81.17,35.26H70.92a1,1,0,0,0-.72.32c-1.39,1.55-2.93,3.18-4.39,4.68a1,1,0,0,0,.7,1.66H76a2.76,2.76,0,0,0,1.82-.61l4.07-4.41A1,1,0,0,0,81.17,35.26Zm-3.8,17.92V46.56a1,1,0,0,0-1-1H67.3a1,1,0,0,0-1,1v6.62a1,1,0,0,0,1,1h9.09A1,1,0,0,0,77.37,53.18Zm14,0V46.56a1,1,0,0,0-1-1H81.65a1,1,0,0,0-1,1v6.62a1,1,0,0,0,1,1h8.73A1,1,0,0,0,91.36,53.18Z"/><path class="cls-1" d="M211.51,50.07H170.69V46.4h18.07a1.2,1.2,0,0,0,1.2-1.2V39a1.2,1.2,0,0,0-1.2-1.2h-8.44a1.2,1.2,0,0,0-1.09.71Q178.09,41,177,43.37l-2.73-1.86q3.22-6.76,6.26-14.53l2.91,1.6q-.76,1.92-1.56,3.89a1.2,1.2,0,0,0,1.11,1.65h5.83a1.2,1.2,0,0,0,1.2-1.2V26.34h3.26v6.57a1.2,1.2,0,0,0,1.2,1.2h12.48v3.67H194.42a1.2,1.2,0,0,0-1.2,1.2v6.23a1.2,1.2,0,0,0,1.2,1.2h17.09ZM204.9,74.89h-3.35V73.36a1.2,1.2,0,0,0-1.2-1.2H182.08a1.2,1.2,0,0,0-1.2,1.2v1.53h-3.35V54.81H204.9Zm-3.35-7.7v-7.4a1.2,1.2,0,0,0-1.2-1.2H182.08a1.2,1.2,0,0,0-1.2,1.2v7.4a1.2,1.2,0,0,0,1.2,1.2h18.26A1.2,1.2,0,0,0,201.54,67.18Z"/><path class="cls-1" d="M152.47,63.75h-3.4V62.28a1.46,1.46,0,0,0-1.46-1.46H137.42A1.45,1.45,0,0,0,136,62.27V75h-3.4V62.27a1.45,1.45,0,0,0-1.45-1.45H121.06a1.46,1.46,0,0,0-1.46,1.46V64h-3.35V34.53h14.87a1.45,1.45,0,0,0,1.45-1.45V26.34H136v6.74a1.45,1.45,0,0,0,1.45,1.45h15Zm-19.9-19.44V39.76a1.45,1.45,0,0,0-1.45-1.45H121.06a1.45,1.45,0,0,0-1.45,1.45v4.55a1.45,1.45,0,0,0,1.45,1.45h10.06A1.45,1.45,0,0,0,132.57,44.31Zm0,11.28V50.94a1.45,1.45,0,0,0-1.45-1.45H121.06a1.45,1.45,0,0,0-1.45,1.45v4.66A1.45,1.45,0,0,0,121.06,57h10.06A1.45,1.45,0,0,0,132.57,55.59Zm16.5-11.28V39.76a1.45,1.45,0,0,0-1.45-1.45h-10.2A1.45,1.45,0,0,0,136,39.76v4.55a1.45,1.45,0,0,0,1.45,1.45h10.2A1.45,1.45,0,0,0,149.07,44.31Zm0,11.28V50.94a1.45,1.45,0,0,0-1.45-1.45h-10.2A1.45,1.45,0,0,0,136,50.94v4.66A1.45,1.45,0,0,0,137.42,57h10.2A1.45,1.45,0,0,0,149.07,55.59Z"/><path class="cls-1" d="M12.43,13l.74,0a3.3,3.3,0,0,0,2.18-.75,2.86,2.86,0,0,0,1-2.29,3.09,3.09,0,0,0-.66-1.92,2.64,2.64,0,0,0-2.21-.84c-1.31,0-2.41.21-5.23,1.28a1.85,1.85,0,0,0-.95,2.08l2.61,11.5-2.2.45L5.12,11.3a1.15,1.15,0,0,0-1.52-.91L.95,11.45,0,9.09,2.86,7.94a1.8,1.8,0,0,0,1-2L2.87,2.34,5,1.76l1,3.6c.15.56.6,1.09,1.23.86a18.69,18.69,0,0,1,6.21-1.53,4.65,4.65,0,0,1,3.93,1.73A5.8,5.8,0,0,1,18.56,10,6.28,6.28,0,0,1,18,12.65a4.77,4.77,0,0,1-4.3,3,10.65,10.65,0,0,1-1.38,0Z"/><polygon class="cls-1" points="11.99 4.04 8.42 2.13 9.48 0.15 13.1 2.08 11.99 4.04"/><path class="cls-1" d="M33,0V12.31c0,.43-.25.77-.63.75S31.9,13,31.57,13a7.37,7.37,0,0,0-3.64.82,3.84,3.84,0,0,0-2,3.53,3.64,3.64,0,0,0,1.68,3.13,5.53,5.53,0,0,0,3.11.92,4.75,4.75,0,0,0,2.87-.86,3.76,3.76,0,0,0,1.52-2.9c.06-.83.57-1.13,1.06-.91a23.09,23.09,0,0,1,4.23,2.81l1.72-1.88a27.33,27.33,0,0,0-6.5-3.84,1.22,1.22,0,0,1-.58-1V9.42a1.58,1.58,0,0,1,1.31-1.76,22.1,22.1,0,0,0,4.31-1.39l-1-2.34a9.62,9.62,0,0,1-1.49.7,15.89,15.89,0,0,1-2.38.6c-.54.11-.74-.35-.74-.86V0Zm0,17.47c-.09.93-.84,1.39-2.19,1.39a3.79,3.79,0,0,1-1.88-.46,1.18,1.18,0,0,1-.74-1.06,1.28,1.28,0,0,1,.42-1,4.38,4.38,0,0,1,2.94-.77h.59a.81.81,0,0,1,.85.75C33,17.05,33,17.23,33,17.47Z"/><path class="cls-1" d="M68.33,14.88C68,12.68,66,6.69,64.24,4.13c-.74.4-2.07,1.17-2.07,1.17,1.92,2.57,3.19,7.37,3.86,10.22C66,15.53,68.42,14.84,68.33,14.88Z"/><path class="cls-1" d="M57,14.92l-.34.63c-.82,1.45-1.64,1.85-2.4,1.85-1.1,0-2.39-1.42-2.39-9.76,0-1.48,0-2.86.12-4.1l.11-1L49.8,2.41l-.08.9c-.09,1.35-.14,2.75-.14,4.18,0,8.67,1.56,12.88,4.77,12.88,1.4,0,2.71-.94,3.9-2.79.13-.21.89-1.52.89-1.52Z"/><path class="cls-1" d="M88.51,10a5.92,5.92,0,0,0-2.69-2.2,6.54,6.54,0,0,0-4.86,0,7.39,7.39,0,0,0-4.11,3.95A8.48,8.48,0,0,0,76,15.29a5,5,0,0,0,.36,1.9,3.09,3.09,0,0,0,.89,1.26,2.43,2.43,0,0,0,1.61.65,3,3,0,0,0,2.29-1.27A9,9,0,0,0,82,16.48a23,23,0,0,0,2.32-6.34.4.4,0,0,1,.51-.3,3.86,3.86,0,0,1,1.59,1,3.71,3.71,0,0,1,1,2.72,5.5,5.5,0,0,1-.4,2.07,4.8,4.8,0,0,1-1.4,1.87,5.38,5.38,0,0,1-2.07,1.06c.22.48.68,1.39,1,2a6.92,6.92,0,0,0,1.88-.9,7.07,7.07,0,0,0,3-5.09,7.41,7.41,0,0,0,.07-1A6.14,6.14,0,0,0,88.51,10Zm-6.34.37a19.41,19.41,0,0,1-1.95,5c-.74,1.32-1.22,1.46-1.39,1.46a.54.54,0,0,1-.36-.17,1.77,1.77,0,0,1-.46-1.4,5.7,5.7,0,0,1,.65-2.46,5.45,5.45,0,0,1,2.6-2.76C82,9.65,82.24,10.07,82.17,10.38Z"/><path class="cls-1" d="M63.85,108.3H59.44v-2.36h1.11a.94.94,0,0,0,1.06-1.06V100.6c0-1.32-1.26-.55-1.45-.33a24.31,24.31,0,0,1-6,5.27l-.34.21-1.07-2.12.28-.17a23.78,23.78,0,0,0,6.45-5.93c.42-.53.65-1.4-.51-1.4H52.84V93.72h7.71a.92.92,0,0,0,1.06-1.06V89.29h2.25v3.37c0,.92.55,1.06,1.06,1.06h3.72v2.41H64.91c-.74,0-1.06.24-1.06,1.06Z"/><path class="cls-1" d="M76.57,107.7l-.72-2.33.32-.12a24.62,24.62,0,0,0,3.16-1.53,31.27,31.27,0,0,0,10-8.62l.23-.31,1.82,1.58-.2.27a33.71,33.71,0,0,1-11.11,9.46,25.15,25.15,0,0,1-3.17,1.48Zm3.72-10.79L76,92.65l1.54-1.9,4.31,4.31Z"/><path class="cls-1" d="M130.58,108.77h-2.33v-9.7c0-.9-.7-1.08-1.3-.66a43.52,43.52,0,0,1-5.19,3.16l-.35.19-.94-2.26.29-.15a41.14,41.14,0,0,0,12.85-10.13l.26-.32,1.66,1.77-.18.24a24,24,0,0,1-4.15,4.33,2.18,2.18,0,0,0-.62,1.75Z"/><path class="cls-1" d="M143,107.7l-.72-2.33.32-.12a24.6,24.6,0,0,0,3.16-1.53,31.26,31.26,0,0,0,10-8.62l.23-.31,1.82,1.58-.2.27a33.71,33.71,0,0,1-11.11,9.46,25,25,0,0,1-3.17,1.48Zm3.72-10.79-4.33-4.26,1.54-1.9,4.31,4.31Z"/><path class="cls-1" d="M111.15,93.22H100.9V90.83h10.25Z"/><path class="cls-1" d="M104,108.67l-1.55-1.93.42-.19a14.51,14.51,0,0,0,5.37-4A9.16,9.16,0,0,0,110,99.79c.14-.29.47-1.54-1.09-1.54H98.71V95.89h14.63v.37a12.56,12.56,0,0,1-2.58,7.13,16.37,16.37,0,0,1-6.54,5.16Z"/></g></g></svg>