<svg xmlns="http://www.w3.org/2000/svg" viewBox="0 0 209.98 108.77"><defs><style>.cls-1{fill:#6fba2c;}</style></defs><title>アセット 1</title><g id="レイヤー_2" data-name="レイヤー 2"><g id="やよいの給与明細"><path class="cls-1" d="M63.85,108.3H59.44v-2.36h1.11a.94.94,0,0,0,1.06-1.06V100.6c0-1.32-1.26-.55-1.45-.33a24.32,24.32,0,0,1-6,5.27l-.33.21-1.07-2.12.28-.17a23.79,23.79,0,0,0,6.45-5.93c.42-.53.65-1.4-.51-1.4H52.84V93.72h7.71a.92.92,0,0,0,1.06-1.06V89.29h2.25v3.37c0,.92.55,1.06,1.06,1.06h3.72v2.41H64.91c-.74,0-1.06.24-1.06,1.06Z"/><path class="cls-1" d="M76.57,107.7l-.72-2.33.32-.12a24.6,24.6,0,0,0,3.16-1.53,31.27,31.27,0,0,0,10-8.62l.23-.31,1.82,1.58-.2.27a33.71,33.71,0,0,1-11.11,9.46,25.15,25.15,0,0,1-3.17,1.48Zm3.72-10.79L76,92.65l1.54-1.9,4.31,4.31Z"/><path class="cls-1" d="M130.58,108.77h-2.33v-9.7c0-.9-.7-1.08-1.3-.66a43.52,43.52,0,0,1-5.19,3.16l-.35.19-.94-2.26.29-.15a41.14,41.14,0,0,0,12.85-10.13l.26-.32,1.66,1.77-.18.24a24,24,0,0,1-4.15,4.33,2.18,2.18,0,0,0-.62,1.75Z"/><path class="cls-1" d="M143,107.7l-.72-2.33.32-.12a24.62,24.62,0,0,0,3.16-1.53,31.26,31.26,0,0,0,10-8.62l.23-.31,1.82,1.58-.2.27a33.71,33.71,0,0,1-11.11,9.46,25,25,0,0,1-3.17,1.48Zm3.72-10.79-4.33-4.26,1.54-1.9,4.31,4.31Z"/><path class="cls-1" d="M111.15,93.22H100.9V90.83h10.25Z"/><path class="cls-1" d="M104,108.67l-1.55-1.93.42-.19a14.51,14.51,0,0,0,5.37-4A9.16,9.16,0,0,0,110,99.79c.14-.29.47-1.54-1.09-1.54H98.71V95.89h14.63v.37a12.56,12.56,0,0,1-2.58,7.13,16.37,16.37,0,0,1-6.54,5.16Z"/><path class="cls-1" d="M12.43,13l.74,0a3.3,3.3,0,0,0,2.18-.75,2.86,2.86,0,0,0,1-2.29,3.09,3.09,0,0,0-.66-1.92,2.64,2.64,0,0,0-2.21-.84c-1.31,0-2.41.21-5.23,1.28a1.85,1.85,0,0,0-.95,2.08l2.61,11.5-2.2.45L5.12,11.3a1.15,1.15,0,0,0-1.52-.91L.95,11.45,0,9.09,2.86,7.94a1.8,1.8,0,0,0,1-2L2.87,2.34,5,1.76l1,3.6c.15.56.6,1.09,1.23.86a18.69,18.69,0,0,1,6.21-1.53,4.65,4.65,0,0,1,3.93,1.73A5.8,5.8,0,0,1,18.56,10,6.28,6.28,0,0,1,18,12.65a4.77,4.77,0,0,1-4.3,3,10.65,10.65,0,0,1-1.38,0Z"/><polygon class="cls-1" points="11.99 4.04 8.42 2.13 9.48 0.15 13.1 2.08 11.99 4.04"/><path class="cls-1" d="M33,0V12.31c0,.43-.25.77-.63.75S31.9,13,31.57,13a7.37,7.37,0,0,0-3.64.82,3.84,3.84,0,0,0-2,3.53,3.64,3.64,0,0,0,1.68,3.13,5.53,5.53,0,0,0,3.11.92,4.75,4.75,0,0,0,2.87-.86,3.76,3.76,0,0,0,1.52-2.9c.06-.83.57-1.13,1.06-.91a23.09,23.09,0,0,1,4.23,2.81l1.72-1.88a27.33,27.33,0,0,0-6.5-3.84,1.22,1.22,0,0,1-.58-1V9.42a1.58,1.58,0,0,1,1.31-1.76,22.11,22.11,0,0,0,4.31-1.39l-1-2.34a9.61,9.61,0,0,1-1.49.7,15.88,15.88,0,0,1-2.38.6c-.54.11-.74-.35-.74-.86V0Zm0,17.47c-.09.93-.84,1.39-2.19,1.39a3.79,3.79,0,0,1-1.88-.46,1.18,1.18,0,0,1-.74-1.06,1.28,1.28,0,0,1,.42-1,4.38,4.38,0,0,1,2.94-.77h.59a.81.81,0,0,1,.85.75C33,17.05,33,17.23,33,17.47Z"/><path class="cls-1" d="M68.33,14.88C68,12.68,66,6.69,64.24,4.13c-.74.4-2.07,1.17-2.07,1.17,1.92,2.57,3.19,7.37,3.86,10.22C66,15.53,68.42,14.84,68.33,14.88Z"/><path class="cls-1" d="M57,14.92l-.34.63c-.82,1.45-1.64,1.85-2.4,1.85-1.1,0-2.39-1.42-2.39-9.76,0-1.48,0-2.86.12-4.1l.11-1L49.8,2.41l-.08.9c-.09,1.35-.14,2.75-.14,4.18,0,8.67,1.56,12.88,4.77,12.88,1.4,0,2.71-.94,3.9-2.79.13-.21.89-1.52.89-1.52Z"/><path class="cls-1" d="M88.51,10a5.92,5.92,0,0,0-2.69-2.2,6.54,6.54,0,0,0-4.86,0,7.39,7.39,0,0,0-4.11,3.95A8.48,8.48,0,0,0,76,15.29a5,5,0,0,0,.36,1.9,3.09,3.09,0,0,0,.89,1.26,2.43,2.43,0,0,0,1.61.65,3,3,0,0,0,2.29-1.27A9,9,0,0,0,82,16.48a23,23,0,0,0,2.32-6.34.4.4,0,0,1,.51-.3,3.86,3.86,0,0,1,1.59,1,3.71,3.71,0,0,1,1,2.72,5.5,5.5,0,0,1-.4,2.07,4.8,4.8,0,0,1-1.4,1.87,5.38,5.38,0,0,1-2.07,1.06c.22.48.68,1.39,1,2a6.92,6.92,0,0,0,1.88-.9,7.07,7.07,0,0,0,3-5.09,7.41,7.41,0,0,0,.07-1A6.14,6.14,0,0,0,88.51,10Zm-6.34.37a19.41,19.41,0,0,1-1.95,5c-.74,1.32-1.22,1.46-1.39,1.46a.54.54,0,0,1-.36-.17,1.77,1.77,0,0,1-.46-1.4,5.7,5.7,0,0,1,.65-2.46,5.45,5.45,0,0,1,2.6-2.76C82,9.65,82.24,10.07,82.17,10.38Z"/><path class="cls-1" d="M97.71,60.7H89.07a1.42,1.42,0,0,0-1.38,1.11c-1.32,6-3.82,13.27-3.82,13.27H73.64V71.34h6.69a1.41,1.41,0,0,0,1.23-.72,38.12,38.12,0,0,0,2.59-8.17,1.42,1.42,0,0,0-1.38-1.75H58.61V57H84.14c.68,0,1.24-.54,1.46-1.5,0,0,.46-2.37.74-4a1.42,1.42,0,0,0-1.4-1.65h-21l4.67-22.21,3.38.75-1.1,5.32a1.42,1.42,0,0,0,1.39,1.71H93.56v3.72H70.87a1.42,1.42,0,0,0-1.39,1.13l-.86,4.13A1.42,1.42,0,0,0,70,46H90.5S89.3,53.5,89,55.31A1.42,1.42,0,0,0,90.37,57h7.34Z"/><path class="cls-1" d="M20,55.4l-2.63,1.21-.8-1.74a1.38,1.38,0,0,0-1.41-.79l-1.92.23a1.16,1.16,0,0,0-1,1.15V75.11h-3v-19A1.16,1.16,0,0,0,7.94,55l-6.43.82-.43-3.41,2.15-.27a1.16,1.16,0,0,0,.8-.49l4.27-6.08a1.16,1.16,0,0,0-.12-1.47L.79,36.41l2.34-2.26,1.24,1.28a1.16,1.16,0,0,0,1.81-.19L11,27.49l2.64,1.64L8.11,38.05a1.16,1.16,0,0,0,.15,1.42L9.8,41.05a1.16,1.16,0,0,0,1.77-.14l4.22-6,2.6,1.83L9.49,49.37a1.16,1.16,0,0,0,1.09,1.82l2.23-.28A1.38,1.38,0,0,0,13.9,49l-.45-1,2.62-1.19ZM7.54,59.11A96.66,96.66,0,0,1,4.36,72.58l-2.8-1.25a89.23,89.23,0,0,0,3.06-12.9Zm11.23,9.52-2.84.83L13.75,59.31l2.88-.88Zm24-24.55-2.57,2.2a70.87,70.87,0,0,1-9.37-12.52,1.15,1.15,0,0,0-2,0,95,95,0,0,1-8.91,12.6l-2.61-2.11a89,89,0,0,0,11.18-16.5h2.58a84,84,0,0,0,5.44,8.55A69.66,69.66,0,0,0,42.75,44.08Zm-3.32,31H36.38V72.9a1.16,1.16,0,0,0-1.16-1.16H25.56a1.16,1.16,0,0,0-1.16,1.16v2.21H21.35V54.95H39.43ZM38.08,49.3H22.31V45.59H38.08Zm-1.7,17.57v-7a1.16,1.16,0,0,0-1.16-1.16H25.56a1.16,1.16,0,0,0-1.16,1.16v7A1.16,1.16,0,0,0,25.56,68h9.65A1.16,1.16,0,0,0,36.38,66.87Z"/><path class="cls-1" d="M189.3,55.39l-2.63,1.21-.8-1.74a1.38,1.38,0,0,0-1.41-.79l-1.92.23a1.16,1.16,0,0,0-1,1.15V75.09h-3v-19a1.16,1.16,0,0,0-1.3-1.15l-6.43.82-.43-3.41,2.15-.27a1.16,1.16,0,0,0,.8-.48l4.26-6.07a1.16,1.16,0,0,0-.11-1.47l-7.4-7.66,2.34-2.26,1.24,1.28a1.16,1.16,0,0,0,1.81-.19l4.85-7.74L183,29.12,177.42,38a1.16,1.16,0,0,0,.15,1.42L179.11,41a1.16,1.16,0,0,0,1.77-.14l4.22-6,2.6,1.83-8.91,12.61a1.16,1.16,0,0,0,1.09,1.82l2.23-.28A1.38,1.38,0,0,0,183.2,49l-.45-1,2.62-1.19Zm-12.46,3.71a96.61,96.61,0,0,1-3.19,13.46l-2.79-1.25a89.19,89.19,0,0,0,3.06-12.89Zm11.22,9.51-2.84.83L183,59.3l2.88-.88Z"/><path class="cls-1" d="M130.73,62.59H120.61A1.42,1.42,0,0,0,119.19,64v2.44h-3.11V29.9h14.65Zm-3.11-19.75V35a1.42,1.42,0,0,0-1.42-1.42h-5.58A1.42,1.42,0,0,0,119.19,35v7.81a1.42,1.42,0,0,0,1.42,1.42h5.58A1.42,1.42,0,0,0,127.61,42.83Zm0,14.62V49.34a1.42,1.42,0,0,0-1.42-1.42h-5.58a1.42,1.42,0,0,0-1.42,1.42v8.12a1.42,1.42,0,0,0,1.42,1.42h5.58A1.42,1.42,0,0,0,127.61,57.46Zm17.72,17.61V71.36H148a1.42,1.42,0,0,0,1.42-1.42V59.47A1.42,1.42,0,0,0,148,58h-8.81a1.42,1.42,0,0,0-1.4,1.19,29.43,29.43,0,0,1-2.8,8.58A18.27,18.27,0,0,1,128.84,75l-1.58-3.29a16.46,16.46,0,0,0,6-8.2,30.31,30.31,0,0,0,1.89-10.76V29.11h17.37v46ZM149.42,53V46.83A1.42,1.42,0,0,0,148,45.41h-8.21a1.43,1.43,0,0,0-1.42,1.42q0,4.23,0,6.12a1.42,1.42,0,0,0,1.42,1.43H148A1.42,1.42,0,0,0,149.42,53Zm0-12.59V34.24A1.42,1.42,0,0,0,148,32.82h-8.21a1.42,1.42,0,0,0-1.42,1.42v6.14a1.42,1.42,0,0,0,1.42,1.42H148A1.42,1.42,0,0,0,149.42,40.38Z"/><path class="cls-1" d="M210,75.09h-3V72.81a1.42,1.42,0,0,0-1.42-1.42H194.34a1.42,1.42,0,0,0-1.42,1.42v2.28h-3V30.65H210ZM198.4,47.87V35.73A1.42,1.42,0,0,0,197,34.3h-2.64a1.42,1.42,0,0,0-1.42,1.42V47.87a1.42,1.42,0,0,0,1.42,1.42H197A1.42,1.42,0,0,0,198.4,47.87Zm0,18.54V54.06A1.42,1.42,0,0,0,197,52.63h-2.64a1.42,1.42,0,0,0-1.42,1.42V66.41a1.42,1.42,0,0,0,1.42,1.42H197A1.42,1.42,0,0,0,198.4,66.41ZM207,47.87V35.73a1.42,1.42,0,0,0-1.42-1.42h-2.64a1.42,1.42,0,0,0-1.42,1.42V47.87a1.42,1.42,0,0,0,1.42,1.42h2.64A1.42,1.42,0,0,0,207,47.87Zm0,18.54V54.06a1.42,1.42,0,0,0-1.42-1.42h-2.64a1.42,1.42,0,0,0-1.42,1.42V66.41a1.42,1.42,0,0,0,1.42,1.42h2.64A1.42,1.42,0,0,0,207,66.41Z"/></g></g></svg>