<svg xmlns="http://www.w3.org/2000/svg" viewBox="0 0 537.22 212.72"><defs><style>.cls-1{fill:none;}.cls-2{fill:#005bac;}.cls-3{fill:#fff;}</style></defs><title>アセット 1</title><g id="レイヤー_2" data-name="レイヤー 2"><g id="スローガンなし"><rect class="cls-1" width="537.22" height="212.72"/><path class="cls-2" d="M501.77,38a2.56,2.56,0,0,0-2.56-2.55H362.54A2.55,2.55,0,0,0,360,38V174.68a2.56,2.56,0,0,0,2.54,2.55H499.21a2.56,2.56,0,0,0,2.56-2.55Z"/><path class="cls-3" d="M392.44,52.29a12,12,0,0,0,0,24H443.9l-67.52,67.51a12,12,0,0,0,17,17l67.5-67.51v51.45a12,12,0,1,0,24,0V64.31a12,12,0,0,0-12-12Z"/><path class="cls-2" d="M334.55,159.24H276.42v-29.3h38.68a1.13,1.13,0,0,0,1.13-1.12V113a1.13,1.13,0,0,0-1.13-1.13H276.42V82.66h47.32a1.12,1.12,0,0,0,1.12-1.12V65.76a1.13,1.13,0,0,0-1.12-1.12H276.42v-28a1.13,1.13,0,0,0-1.12-1.13H259.84a1.13,1.13,0,0,0-1.13,1.13v28H227.94a145.1,145.1,0,0,0,4.63-17.8,1.09,1.09,0,0,0-.25-.93,1.08,1.08,0,0,0-.86-.41h-16.1a1.13,1.13,0,0,0-1.1.89C208.94,70.67,198.34,85.82,194,91.21a1.12,1.12,0,0,0,.24,1.63l12.95,9.05a1.14,1.14,0,0,0,1.53-.23,111.88,111.88,0,0,0,11.84-19h38.14v29.26H220a1.13,1.13,0,0,0-1.13,1.13v15.76a1.13,1.13,0,0,0,1.13,1.12h38.67v29.3H200.59a1.13,1.13,0,0,0-1.13,1.13v15.76a1.13,1.13,0,0,0,1.13,1.13h134a1.12,1.12,0,0,0,1.12-1.13V160.37A1.12,1.12,0,0,0,334.55,159.24Z"/><path class="cls-2" d="M174.91,72.64A1.13,1.13,0,0,0,176,71.51V55.75a1.13,1.13,0,0,0-1.13-1.12H125.05a145.11,145.11,0,0,0,4.62-17.8,1.11,1.11,0,0,0-.23-.93,1.13,1.13,0,0,0-.87-.41H112.48a1.12,1.12,0,0,0-1.11.89C106.05,60.65,95.44,75.8,91.13,81.19a1.11,1.11,0,0,0,.24,1.63l12.95,9.05a1.12,1.12,0,0,0,1.53-.23,111.36,111.36,0,0,0,11.84-19H129v78.45a8,8,0,0,1-8.17,8.16H105.31a1.15,1.15,0,0,0-.91.46,1.11,1.11,0,0,0-.16,1l5,15.77a1.13,1.13,0,0,0,1.08.79h17A19.74,19.74,0,0,0,147,157.56V72.64Z"/><path class="cls-2" d="M87.6,99.73H56.42l2.36-14.14H84.7a1.13,1.13,0,0,0,1.13-1.13v-44a1.12,1.12,0,0,0-1.13-1.12H40a1.13,1.13,0,0,0-1.12,1.12V55.12A1.13,1.13,0,0,0,40,56.24H67.9V69.82H44.1a1.13,1.13,0,0,0-1.11.94l-7.25,43.42a1.12,1.12,0,0,0,1.11,1.31H69.75c-.28,6.25-.74,16.42-.75,16.64l-.08,1.1c-.86,11.69-1.76,23.78-15.75,25.41a93.43,93.43,0,0,1-9.91.61h-.82a1.12,1.12,0,0,0-1.08,1.46l5,15.77a1.14,1.14,0,0,0,1.08.79H50c11.15,0,19.48-2.86,25.51-8.73,9.87-9.61,10.85-23.32,11.56-33.32l.13-1.77,1.49-32.53a1.2,1.2,0,0,0-.31-.83A1.12,1.12,0,0,0,87.6,99.73Z"/><path class="cls-2" d="M114.85,144.91,122.18,101a1.12,1.12,0,0,0-1.11-1.31h-16a1.11,1.11,0,0,0-1.1.94l-7.34,43.91a1.11,1.11,0,0,0,1.1,1.31h16A1.11,1.11,0,0,0,114.85,144.91Z"/><path class="cls-2" d="M171.91,100.63a1.13,1.13,0,0,0-1.11-.94h-16a1.12,1.12,0,0,0-.85.4,1.1,1.1,0,0,0-.25.91L161,144.91a1.11,1.11,0,0,0,1.11.94h16a1.14,1.14,0,0,0,.86-.39,1.16,1.16,0,0,0,.25-.91Z"/></g></g></svg>